<svg width="230" height="200" viewBox="0 0 230 200" fill="none" xmlns="http://www.w3.org/2000/svg">
<path d="M1.90718 181.395C1.39604 181.379 0.9111 181.163 0.555096 180.792C0.199093 180.422 0 179.926 0 179.41C0 178.894 0.199093 178.399 0.555096 178.028C0.9111 177.658 1.39604 177.442 1.90718 177.426H174C174.511 177.442 174.996 177.658 175.352 178.028C175.708 178.399 175.907 178.894 175.907 179.41C175.907 179.926 175.708 180.422 175.352 180.792C174.996 181.163 174.511 181.379 174 181.395H1.90718ZM183.838 181.395C183.575 181.403 183.313 181.357 183.067 181.261C182.821 181.165 182.597 181.02 182.408 180.835C182.219 180.65 182.069 180.429 181.966 180.184C181.863 179.939 181.81 179.676 181.81 179.41C181.81 179.144 181.863 178.881 181.966 178.636C182.069 178.392 182.219 178.17 182.408 177.985C182.597 177.8 182.821 177.655 183.067 177.559C183.313 177.463 183.575 177.418 183.838 177.426H189.984C190.495 177.442 190.98 177.658 191.336 178.028C191.692 178.399 191.891 178.894 191.891 179.41C191.891 179.926 191.692 180.422 191.336 180.792C190.98 181.163 190.495 181.379 189.984 181.395H183.838ZM205.965 181.395C205.702 181.403 205.44 181.357 205.194 181.261C204.949 181.165 204.724 181.02 204.535 180.835C204.346 180.65 204.196 180.429 204.093 180.184C203.99 179.939 203.938 179.676 203.938 179.41C203.938 179.144 203.99 178.881 204.093 178.636C204.196 178.392 204.346 178.17 204.535 177.985C204.724 177.8 204.949 177.655 205.194 177.559C205.44 177.463 205.702 177.418 205.965 177.426H228.093C228.604 177.442 229.089 177.658 229.445 178.028C229.801 178.399 230 178.894 230 179.41C230 179.926 229.801 180.422 229.445 180.792C229.089 181.163 228.604 181.379 228.093 181.395H205.965ZM58.4531 199.999C58.1898 200.007 57.9275 199.962 57.6818 199.866C57.4361 199.77 57.2121 199.625 57.023 199.44C56.8338 199.255 56.6834 199.033 56.5808 198.789C56.4781 198.544 56.4251 198.281 56.4251 198.015C56.4251 197.749 56.4781 197.486 56.5808 197.241C56.6834 196.996 56.8338 196.775 57.023 196.59C57.2121 196.404 57.4361 196.26 57.6818 196.164C57.9275 196.068 58.1898 196.022 58.4531 196.03H75.6624C75.9258 196.022 76.1881 196.068 76.4337 196.164C76.6794 196.26 76.9035 196.404 77.0926 196.59C77.2817 196.775 77.4321 196.996 77.5348 197.241C77.6375 197.486 77.6904 197.749 77.6904 198.015C77.6904 198.281 77.6375 198.544 77.5348 198.789C77.4321 199.033 77.2817 199.255 77.0926 199.44C76.9035 199.625 76.6794 199.77 76.4337 199.866C76.1881 199.962 75.9258 200.007 75.6624 199.999H58.4531ZM86.7261 199.999C86.4628 200.007 86.2005 199.962 85.9548 199.866C85.7091 199.77 85.4851 199.625 85.2959 199.44C85.1068 199.255 84.9564 199.033 84.8537 198.789C84.751 198.544 84.6981 198.281 84.6981 198.015C84.6981 197.749 84.751 197.486 84.8537 197.241C84.9564 196.996 85.1068 196.775 85.2959 196.59C85.4851 196.404 85.7091 196.26 85.9548 196.164C86.2005 196.068 86.4628 196.022 86.7261 196.03H161.711C162.222 196.046 162.707 196.262 163.063 196.633C163.419 197.003 163.618 197.499 163.618 198.015C163.618 198.531 163.419 199.026 163.063 199.397C162.707 199.767 162.222 199.983 161.711 199.999H86.7261ZM196.623 131.039C196.615 130.773 196.66 130.509 196.755 130.261C196.85 130.013 196.994 129.787 197.177 129.596C197.36 129.405 197.58 129.253 197.823 129.15C198.065 129.046 198.326 128.993 198.589 128.993C198.853 128.993 199.114 129.046 199.356 129.15C199.599 129.253 199.818 129.405 200.002 129.596C200.185 129.787 200.329 130.013 200.424 130.261C200.519 130.509 200.564 130.773 200.556 131.039V138.48C200.556 139.007 200.349 139.512 199.98 139.884C199.611 140.257 199.11 140.466 198.588 140.466H191.213C190.95 140.474 190.688 140.429 190.442 140.333C190.196 140.237 189.972 140.092 189.783 139.907C189.594 139.722 189.444 139.5 189.341 139.255C189.238 139.01 189.185 138.747 189.185 138.481C189.185 138.216 189.238 137.952 189.341 137.708C189.444 137.463 189.594 137.241 189.783 137.056C189.972 136.871 190.196 136.726 190.442 136.63C190.688 136.534 190.95 136.489 191.213 136.497H196.623V131.039ZM200.556 145.922C200.564 146.188 200.519 146.452 200.424 146.7C200.329 146.948 200.185 147.174 200.002 147.365C199.818 147.556 199.599 147.708 199.356 147.811C199.114 147.915 198.853 147.968 198.589 147.968C198.326 147.968 198.065 147.915 197.823 147.811C197.58 147.708 197.36 147.556 197.177 147.365C196.994 147.174 196.85 146.948 196.755 146.7C196.66 146.452 196.615 146.188 196.623 145.922V138.48C196.623 137.954 196.83 137.449 197.199 137.077C197.568 136.704 198.069 136.495 198.59 136.495H205.969C206.233 136.487 206.495 136.532 206.741 136.628C206.986 136.724 207.21 136.869 207.399 137.054C207.589 137.239 207.739 137.461 207.842 137.706C207.944 137.951 207.997 138.214 207.997 138.48C207.997 138.745 207.944 139.009 207.842 139.253C207.739 139.498 207.589 139.72 207.399 139.905C207.21 140.09 206.986 140.235 206.741 140.331C206.495 140.427 206.233 140.472 205.969 140.464H200.56L200.556 145.922ZM9.7682 71.5039C9.76011 71.2382 9.80499 70.9735 9.90019 70.7257C9.99538 70.4778 10.1389 70.2517 10.3224 70.0609C10.5058 69.87 10.7253 69.7183 10.968 69.6147C11.2106 69.5111 11.4714 69.4577 11.7348 69.4577C11.9983 69.4577 12.2591 69.5111 12.5017 69.6147C12.7444 69.7183 12.9639 69.87 13.1473 70.0609C13.3307 70.2517 13.4743 70.4778 13.5695 70.7257C13.6647 70.9735 13.7096 71.2382 13.7015 71.5039V78.9453C13.7015 79.4718 13.4942 79.9768 13.1252 80.3491C12.7562 80.7214 12.2557 80.9306 11.7339 80.9306H4.36432C4.10098 80.9387 3.83869 80.8935 3.59302 80.7974C3.34735 80.7014 3.1233 80.5565 2.93416 80.3714C2.74502 80.1864 2.59465 79.9649 2.49196 79.72C2.38927 79.4752 2.33635 79.2121 2.33635 78.9463C2.33635 78.6804 2.38927 78.4173 2.49196 78.1725C2.59465 77.9277 2.74502 77.7062 2.93416 77.5211C3.1233 77.336 3.34735 77.1912 3.59302 77.0951C3.83869 76.9991 4.10098 76.9538 4.36432 76.9619H9.7682V71.5039ZM191.951 8.74292H198.59C198.854 8.73476 199.116 8.78005 199.362 8.8761C199.607 8.97215 199.831 9.117 200.021 9.30207C200.21 9.48714 200.36 9.70865 200.463 9.95346C200.565 10.1983 200.618 10.4614 200.618 10.7272C200.618 10.9931 200.565 11.2562 200.463 11.501C200.36 11.7458 200.21 11.9673 200.021 12.1524C199.831 12.3375 199.607 12.4823 199.362 12.5784C199.116 12.6744 198.854 12.7197 198.59 12.7116H191.951V19.4102C191.959 19.6759 191.915 19.9405 191.819 20.1884C191.724 20.4363 191.581 20.6623 191.397 20.8532C191.214 21.044 190.994 21.1957 190.752 21.2993C190.509 21.403 190.248 21.4563 189.985 21.4563C189.721 21.4563 189.461 21.403 189.218 21.2993C188.975 21.1957 188.756 21.044 188.572 20.8532C188.389 20.6623 188.245 20.4363 188.15 20.1884C188.055 19.9405 188.01 19.6759 188.018 19.4102V12.7116H181.379C181.116 12.7197 180.854 12.6744 180.608 12.5784C180.362 12.4823 180.138 12.3375 179.949 12.1524C179.76 11.9673 179.609 11.7458 179.507 11.501C179.404 11.2562 179.351 10.9931 179.351 10.7272C179.351 10.4614 179.404 10.1983 179.507 9.95346C179.609 9.70865 179.76 9.48714 179.949 9.30207C180.138 9.117 180.362 8.97215 180.608 8.8761C180.854 8.78005 181.116 8.73476 181.379 8.74292H188.018V2.0462C188.01 1.78048 188.055 1.51584 188.15 1.26796C188.245 1.02008 188.389 0.794019 188.572 0.603181C188.756 0.412343 188.975 0.260617 189.218 0.157004C189.461 0.0533902 189.721 0 189.985 0C190.248 0 190.509 0.0533902 190.752 0.157004C190.994 0.260617 191.214 0.412343 191.397 0.603181C191.581 0.794019 191.724 1.02008 191.819 1.26796C191.915 1.51584 191.959 1.78048 191.951 2.0462V8.74292ZM13.7071 86.3868C13.7151 86.6525 13.6703 86.9171 13.5751 87.165C13.4799 87.4129 13.3363 87.6389 13.1529 87.8298C12.9695 88.0206 12.7499 88.1723 12.5073 88.2759C12.2647 88.3796 12.0039 88.433 11.7404 88.433C11.4769 88.433 11.2162 88.3796 10.9735 88.2759C10.7309 88.1723 10.5113 88.0206 10.3279 87.8298C10.1445 87.6389 10.0009 87.4129 9.90575 87.165C9.81056 86.9171 9.76567 86.6525 9.77376 86.3868V78.9453C9.77474 78.4195 9.98247 77.9155 10.3514 77.544C10.7202 77.1725 11.2201 76.9638 11.7413 76.9638H19.1165C19.3798 76.9557 19.6421 77.0009 19.8878 77.097C20.1335 77.193 20.3575 77.3379 20.5467 77.523C20.7358 77.708 20.8862 77.9295 20.9889 78.1744C21.0915 78.4192 21.1445 78.6823 21.1445 78.9481C21.1445 79.214 21.0915 79.4771 20.9889 79.7219C20.8862 79.9667 20.7358 80.1882 20.5467 80.3733C20.3575 80.5584 20.1335 80.7032 19.8878 80.7993C19.6421 80.8953 19.3798 80.9406 19.1165 80.9325H13.7071V86.3868Z" fill="white"/>
<path d="M34.5881 151.734C34.82 151.508 35.1308 151.383 35.4534 151.386C35.776 151.389 36.0846 151.519 36.3126 151.75C36.5406 151.98 36.6698 152.291 36.6722 152.617C36.6747 152.942 36.5502 153.256 36.3257 153.49L33.7183 156.12C33.4878 156.353 33.1753 156.483 32.8495 156.483C32.5237 156.483 32.2112 156.353 31.9807 156.12L29.3734 153.49C29.1488 153.256 29.0244 152.942 29.0268 152.617C29.0293 152.291 29.1584 151.98 29.3864 151.75C29.6144 151.519 29.923 151.389 30.2456 151.386C30.5683 151.383 30.879 151.508 31.111 151.734L32.8486 153.49L34.5881 151.734ZM31.111 158.751C30.9985 158.873 30.8627 158.971 30.7119 159.039C30.561 159.107 30.3981 159.144 30.2329 159.147C30.0677 159.15 29.9036 159.119 29.7503 159.057C29.5971 158.995 29.4579 158.902 29.3411 158.784C29.2242 158.666 29.1321 158.525 29.0703 158.371C29.0085 158.216 28.9781 158.051 28.9812 157.884C28.9842 157.717 29.0205 157.553 29.0878 157.401C29.1552 157.248 29.2523 157.111 29.3734 156.998L31.9807 154.367C32.2112 154.135 32.5237 154.004 32.8495 154.004C33.1753 154.004 33.4878 154.135 33.7183 154.367L36.3257 156.998C36.4467 157.111 36.5438 157.248 36.6112 157.401C36.6786 157.553 36.7149 157.717 36.7179 157.884C36.7209 158.051 36.6906 158.216 36.6287 158.371C36.5669 158.525 36.4748 158.666 36.358 158.784C36.2411 158.902 36.1019 158.995 35.9487 159.057C35.7955 159.119 35.6314 159.15 35.4662 159.147C35.301 159.144 35.1381 159.107 34.9872 159.039C34.8363 158.971 34.7006 158.873 34.5881 158.751L32.8504 156.998L31.111 158.751ZM56.2926 21.8921C56.5257 21.6734 56.8338 21.5545 57.1521 21.5604C57.4704 21.5662 57.774 21.6964 57.9991 21.9235C58.2242 22.1506 58.3532 22.457 58.359 22.7781C58.3648 23.0992 58.2469 23.4101 58.0302 23.6454L55.4228 26.2762C55.1923 26.5084 54.8798 26.6389 54.554 26.6389C54.2282 26.6389 53.9157 26.5084 53.6852 26.2762L51.076 23.6454C50.8593 23.4101 50.7414 23.0992 50.7472 22.7781C50.753 22.457 50.882 22.1506 51.1071 21.9235C51.3322 21.6964 51.6358 21.5662 51.9541 21.5604C52.2724 21.5545 52.5805 21.6734 52.8136 21.8921L54.5512 23.6454L56.2926 21.8921ZM52.8155 28.9069C52.5823 29.1256 52.2742 29.2445 51.9559 29.2387C51.6377 29.2328 51.3341 29.1026 51.109 28.8755C50.8839 28.6484 50.7549 28.3421 50.7491 28.021C50.7433 27.6998 50.8611 27.3889 51.0779 27.1537L53.6852 24.5229C53.9157 24.2906 54.2282 24.1602 54.554 24.1602C54.8798 24.1602 55.1923 24.2906 55.4228 24.5229L58.0302 27.1537C58.2469 27.3889 58.3648 27.6998 58.359 28.021C58.3532 28.3421 58.2242 28.6484 57.9991 28.8755C57.774 29.1026 57.4704 29.2328 57.1521 29.2387C56.8338 29.2445 56.5257 29.1256 56.2926 28.9069L54.555 27.1537L52.8155 28.9069Z" fill="white"/>
<path d="M158 133.469V132.942V70.8083V40.5312C158 34.739 153.227 30 147.393 30H85.607C79.7732 30 75 34.739 75 40.5312V133.469C75 139.261 79.7732 144 85.607 144H143.681H147.393" stroke="white" stroke-width="5" stroke-miterlimit="10"/>
<path d="M170.96 144H163.04C160.16 144 158 140.586 158 136.647V71H170.96C173.84 71 176 74.4137 176 78.3525V136.647C176 140.586 173.84 144 170.96 144Z" stroke="white" stroke-width="5" stroke-miterlimit="10"/>
<path d="M143 144H147H165.133H171" stroke="white" stroke-width="5" stroke-miterlimit="10"/>
<path d="M92.5962 68.8159L109.55 51.9199L125.709 68.8159" stroke="white" stroke-width="4" stroke-miterlimit="10" stroke-linecap="round" stroke-linejoin="round"/>
<path d="M140.808 68.8162L129.682 57.2002L121.735 64.5922" stroke="white" stroke-width="4" stroke-miterlimit="10" stroke-linecap="round" stroke-linejoin="round"/>
<path d="M133.126 51.92C135.32 51.92 137.099 50.147 137.099 47.96C137.099 45.773 135.32 44 133.126 44C130.931 44 129.152 45.773 129.152 47.96C129.152 50.147 130.931 51.92 133.126 51.92Z" fill="white"/>
<path d="M92.861 91.2802H90.212C88.6226 91.2802 87.563 90.2242 87.563 88.6402C87.563 87.0562 88.6226 86.0002 90.212 86.0002H92.861C94.4504 86.0002 95.51 87.0562 95.51 88.6402C95.51 90.2242 94.1855 91.2802 92.861 91.2802Z" fill="white"/>
<path d="M144.781 91.28H103.722C102.132 91.28 101.073 90.224 101.073 88.64C101.073 87.056 102.132 86 103.722 86H144.781C146.371 86 147.43 87.056 147.43 88.64C147.43 90.224 146.106 91.28 144.781 91.28Z" fill="white"/>
<path d="M92.861 109.281H90.212C88.6226 109.281 87.563 108.225 87.563 106.641C87.563 105.057 88.6226 104.001 90.212 104.001H92.861C94.4504 104.001 95.51 105.057 95.51 106.641C95.51 108.225 94.1855 109.281 92.861 109.281Z" fill="white"/>
<path d="M144.781 109.28H103.722C102.132 109.28 101.073 108.224 101.073 106.64C101.073 105.056 102.132 104 103.722 104H144.781C146.371 104 147.43 105.056 147.43 106.64C147.43 108.224 146.106 109.28 144.781 109.28Z" fill="white"/>
<path d="M93.298 127.28H90.649C89.0596 127.28 88 126.224 88 124.64C88 123.056 89.0596 122 90.649 122H93.298C94.8874 122 95.947 123.056 95.947 124.64C95.947 126.224 94.6225 127.28 93.298 127.28Z" fill="white"/>
<path d="M145.218 127.28H104.159C102.569 127.28 101.51 126.224 101.51 124.64C101.51 123.056 102.569 122 104.159 122H145.218C146.808 122 147.867 123.056 147.867 124.64C147.867 126.224 146.543 127.28 145.218 127.28Z" fill="white"/>
<path d="M64.3377 86.2803C75.0177 86.2803 83.6755 77.652 83.6755 67.0083C83.6755 56.3647 75.0177 47.7363 64.3377 47.7363C53.6578 47.7363 45 56.3647 45 67.0083C45 77.652 53.6578 86.2803 64.3377 86.2803Z" stroke="white" stroke-width="4" stroke-miterlimit="10"/>
<path d="M64.3378 63.8399C66.5323 63.8399 68.3113 62.067 68.3113 59.8799C68.3113 57.6929 66.5323 55.9199 64.3378 55.9199C62.1433 55.9199 60.3643 57.6929 60.3643 59.8799C60.3643 62.067 62.1433 63.8399 64.3378 63.8399Z" fill="white"/>
<path d="M76.7882 78.6251C78.5438 78.6251 79.967 77.2067 79.967 75.4571C79.967 73.7074 78.5438 72.2891 76.7882 72.2891C75.0326 72.2891 73.6094 73.7074 73.6094 75.4571C73.6094 77.2067 75.0326 78.6251 76.7882 78.6251Z" fill="white"/>
<path d="M59.0396 74.4017C60.21 74.4017 61.1588 73.4562 61.1588 72.2897C61.1588 71.1233 60.21 70.1777 59.0396 70.1777C57.8692 70.1777 56.9204 71.1233 56.9204 72.2897C56.9204 73.4562 57.8692 74.4017 59.0396 74.4017Z" fill="white"/>
</svg>
