<svg width="823" height="144" viewBox="0 0 823 144" fill="none" xmlns="http://www.w3.org/2000/svg">
<path d="M84.1953 52.8C98.862 54.4 110.595 57 119.395 60.6C128.329 64.2 134.795 68.9333 138.795 74.8C142.795 80.6667 144.795 88 144.795 96.8C144.795 106.4 141.662 114.8 135.395 122C129.262 129.067 120.729 134.533 109.795 138.4C98.862 142.133 86.3953 144 72.3953 144C56.7953 144 43.5953 142.067 32.7953 138.2C21.9953 134.333 13.9286 129.2 8.59531 122.8C3.26198 116.267 0.595313 109.133 0.595313 101.4C0.595313 100.067 0.995313 99 1.79531 98.2C2.72865 97.4 3.86198 97 5.19531 97H46.1953C48.9953 97 51.262 97.8667 52.9953 99.6C55.262 101.733 57.7953 103.2 60.5953 104C63.3953 104.667 67.3287 105 72.3953 105C85.062 105 91.3953 103.067 91.3953 99.2C91.3953 97.6 90.5287 96.2667 88.7953 95.2C87.1953 94 84.262 93 79.9953 92.2C75.862 91.2667 69.7287 90.3333 61.5953 89.4C43.3286 87.2667 29.3286 82.7333 19.5953 75.8C9.86198 68.7333 4.99531 58.8 4.99531 46C4.99531 36.9333 7.72865 28.9333 13.1953 22C18.662 15.0667 26.3953 9.66666 36.3953 5.79999C46.5286 1.93332 58.262 -7.62939e-06 71.5953 -7.62939e-06C85.462 -7.62939e-06 97.5953 2.19999 107.995 6.59999C118.395 10.8667 126.329 16.2 131.795 22.6C137.262 29 139.995 35.2667 139.995 41.4C139.995 42.7333 139.529 43.8 138.595 44.6C137.795 45.4 136.662 45.8 135.195 45.8H92.1953C89.9287 45.8 87.862 45 85.9953 43.4C84.5286 42.0667 82.7953 41 80.7953 40.2C78.7953 39.4 75.7286 39 71.5953 39C62.662 39 58.1953 40.8667 58.1953 44.6C58.1953 46.6 59.9287 48.2 63.3953 49.4C66.862 50.4667 73.7953 51.6 84.1953 52.8ZM309.717 1.99999C311.184 1.99999 312.451 2.53332 313.517 3.59999C314.584 4.66666 315.117 5.93333 315.117 7.39999V136.6C315.117 138.067 314.584 139.333 313.517 140.4C312.451 141.467 311.184 142 309.717 142H268.517C267.051 142 265.784 141.467 264.717 140.4C263.651 139.333 263.117 138.067 263.117 136.6V94H223.117V136.6C223.117 138.067 222.584 139.333 221.517 140.4C220.451 141.467 219.184 142 217.717 142H176.517C175.051 142 173.784 141.533 172.717 140.6C171.651 139.533 171.117 138.2 171.117 136.6V7.39999C171.117 5.93333 171.651 4.66666 172.717 3.59999C173.784 2.53332 175.051 1.99999 176.517 1.99999H217.717C219.184 1.99999 220.451 2.53332 221.517 3.59999C222.584 4.66666 223.117 5.93333 223.117 7.39999V48.4H263.117V7.39999C263.117 5.93333 263.651 4.66666 264.717 3.59999C265.784 2.53332 267.051 1.99999 268.517 1.99999H309.717ZM477.439 101C478.906 101 480.172 101.533 481.239 102.6C482.306 103.667 482.839 104.933 482.839 106.4V136.6C482.839 138.067 482.306 139.333 481.239 140.4C480.172 141.467 478.906 142 477.439 142H349.039C347.572 142 346.306 141.467 345.239 140.4C344.172 139.333 343.639 138.067 343.639 136.6V107.8C343.639 106.067 343.972 104.6 344.639 103.4C345.306 102.2 345.972 101.333 346.639 100.8L409.839 43H353.239C351.772 43 350.506 42.4667 349.439 41.4C348.372 40.3333 347.839 39.0667 347.839 37.6V7.39999C347.839 5.93333 348.372 4.66666 349.439 3.59999C350.506 2.53332 351.772 1.99999 353.239 1.99999H473.239C474.706 1.99999 475.972 2.53332 477.039 3.59999C478.106 4.66666 478.639 5.93333 478.639 7.39999V36C478.639 38.8 477.772 41 476.039 42.6L413.639 101H477.439ZM647.361 101C648.828 101 650.094 101.533 651.161 102.6C652.228 103.667 652.761 104.933 652.761 106.4V136.6C652.761 138.067 652.228 139.333 651.161 140.4C650.094 141.467 648.828 142 647.361 142H518.961C517.494 142 516.228 141.467 515.161 140.4C514.094 139.333 513.561 138.067 513.561 136.6V107.8C513.561 106.067 513.894 104.6 514.561 103.4C515.228 102.2 515.894 101.333 516.561 100.8L579.761 43H523.161C521.694 43 520.428 42.4667 519.361 41.4C518.294 40.3333 517.761 39.0667 517.761 37.6V7.39999C517.761 5.93333 518.294 4.66666 519.361 3.59999C520.428 2.53332 521.694 1.99999 523.161 1.99999H643.161C644.628 1.99999 645.894 2.53332 646.961 3.59999C648.028 4.66666 648.561 5.93333 648.561 7.39999V36C648.561 38.8 647.694 41 645.961 42.6L583.561 101H647.361ZM817.283 101C818.749 101 820.016 101.533 821.083 102.6C822.149 103.667 822.683 104.933 822.683 106.4V136.6C822.683 138.067 822.149 139.333 821.083 140.4C820.016 141.467 818.749 142 817.283 142H688.883C687.416 142 686.149 141.467 685.083 140.4C684.016 139.333 683.483 138.067 683.483 136.6V107.8C683.483 106.067 683.816 104.6 684.483 103.4C685.149 102.2 685.816 101.333 686.483 100.8L749.683 43H693.083C691.616 43 690.349 42.4667 689.283 41.4C688.216 40.3333 687.683 39.0667 687.683 37.6V7.39999C687.683 5.93333 688.216 4.66666 689.283 3.59999C690.349 2.53332 691.616 1.99999 693.083 1.99999H813.083C814.549 1.99999 815.816 2.53332 816.883 3.59999C817.949 4.66666 818.483 5.93333 818.483 7.39999V36C818.483 38.8 817.616 41 815.883 42.6L753.483 101H817.283Z" fill="#D916E4"/>
</svg>
